<mxfile host="app.diagrams.net" modified="2023-01-24T22:07:36.068Z" agent="5.0 (Windows NT 10.0; Win64; x64) AppleWebKit/537.36 (KHTML, like Gecko) Chrome/109.0.0.0 Safari/537.36" etag="5lqBUmKgy3GordHesasP" version="20.6.0" type="github">
  <diagram name="Page-1" id="Jeb8Cu3JDrhdD-uhvkMB">
    <mxGraphModel dx="1090" dy="585" grid="1" gridSize="10" guides="1" tooltips="1" connect="1" arrows="1" fold="1" page="1" pageScale="1" pageWidth="850" pageHeight="1100" math="0" shadow="0">
      <root>
        <mxCell id="0" />
        <mxCell id="1" parent="0" />
        <mxCell id="wErec2ymmhcHfhgzPg6H-1" value="BattleWorldCharacter" style="swimlane;fontStyle=1;align=center;verticalAlign=top;childLayout=stackLayout;horizontal=1;startSize=26;horizontalStack=0;resizeParent=1;resizeParentMax=0;resizeLast=0;collapsible=1;marginBottom=0;" parent="1" vertex="1">
          <mxGeometry x="312" y="97" width="227" height="138" as="geometry" />
        </mxCell>
        <mxCell id="wErec2ymmhcHfhgzPg6H-2" value="# health: int" style="text;strokeColor=none;fillColor=none;align=left;verticalAlign=top;spacingLeft=4;spacingRight=4;overflow=hidden;rotatable=0;points=[[0,0.5],[1,0.5]];portConstraint=eastwest;" parent="wErec2ymmhcHfhgzPg6H-1" vertex="1">
          <mxGeometry y="26" width="227" height="26" as="geometry" />
        </mxCell>
        <mxCell id="wErec2ymmhcHfhgzPg6H-3" value="# atk: intÂ " style="text;strokeColor=none;fillColor=none;align=left;verticalAlign=top;spacingLeft=4;spacingRight=4;overflow=hidden;rotatable=0;points=[[0,0.5],[1,0.5]];portConstraint=eastwest;" parent="wErec2ymmhcHfhgzPg6H-1" vertex="1">
          <mxGeometry y="52" width="227" height="26" as="geometry" />
        </mxCell>
        <mxCell id="wErec2ymmhcHfhgzPg6H-4" value="" style="line;strokeWidth=1;fillColor=none;align=left;verticalAlign=middle;spacingTop=-1;spacingLeft=3;spacingRight=3;rotatable=0;labelPosition=right;points=[];portConstraint=eastwest;strokeColor=inherit;" parent="wErec2ymmhcHfhgzPg6H-1" vertex="1">
          <mxGeometry y="78" width="227" height="8" as="geometry" />
        </mxCell>
        <mxCell id="wErec2ymmhcHfhgzPg6H-5" value="+ initFrames(): void" style="text;strokeColor=none;fillColor=none;align=left;verticalAlign=top;spacingLeft=4;spacingRight=4;overflow=hidden;rotatable=0;points=[[0,0.5],[1,0.5]];portConstraint=eastwest;" parent="wErec2ymmhcHfhgzPg6H-1" vertex="1">
          <mxGeometry y="86" width="227" height="26" as="geometry" />
        </mxCell>
        <mxCell id="wErec2ymmhcHfhgzPg6H-6" value="+ updateCoords(): void" style="text;strokeColor=none;fillColor=none;align=left;verticalAlign=top;spacingLeft=4;spacingRight=4;overflow=hidden;rotatable=0;points=[[0,0.5],[1,0.5]];portConstraint=eastwest;" parent="wErec2ymmhcHfhgzPg6H-1" vertex="1">
          <mxGeometry y="112" width="227" height="26" as="geometry" />
        </mxCell>
        <mxCell id="wErec2ymmhcHfhgzPg6H-7" value="" style="endArrow=classic;html=1;rounded=0;exitX=0;exitY=0.5;exitDx=0;exitDy=0;entryX=0.5;entryY=0;entryDx=0;entryDy=0;" parent="1" source="wErec2ymmhcHfhgzPg6H-6" target="wErec2ymmhcHfhgzPg6H-8" edge="1">
          <mxGeometry width="50" height="50" relative="1" as="geometry">
            <mxPoint x="270" y="187" as="sourcePoint" />
            <mxPoint x="230" y="307" as="targetPoint" />
            <Array as="points">
              <mxPoint x="234" y="222" />
            </Array>
          </mxGeometry>
        </mxCell>
        <mxCell id="wErec2ymmhcHfhgzPg6H-8" value="Ally" style="swimlane;fontStyle=1;align=center;verticalAlign=top;childLayout=stackLayout;horizontal=1;startSize=26;horizontalStack=0;resizeParent=1;resizeParentMax=0;resizeLast=0;collapsible=1;marginBottom=0;" parent="1" vertex="1">
          <mxGeometry x="120" y="297" width="227" height="138" as="geometry" />
        </mxCell>
        <mxCell id="wErec2ymmhcHfhgzPg6H-9" value="# backLocation: Point" style="text;strokeColor=none;fillColor=none;align=left;verticalAlign=top;spacingLeft=4;spacingRight=4;overflow=hidden;rotatable=0;points=[[0,0.5],[1,0.5]];portConstraint=eastwest;" parent="wErec2ymmhcHfhgzPg6H-8" vertex="1">
          <mxGeometry y="26" width="227" height="26" as="geometry" />
        </mxCell>
        <mxCell id="wErec2ymmhcHfhgzPg6H-10" value="# xp: int" style="text;strokeColor=none;fillColor=none;align=left;verticalAlign=top;spacingLeft=4;spacingRight=4;overflow=hidden;rotatable=0;points=[[0,0.5],[1,0.5]];portConstraint=eastwest;" parent="wErec2ymmhcHfhgzPg6H-8" vertex="1">
          <mxGeometry y="52" width="227" height="26" as="geometry" />
        </mxCell>
        <mxCell id="wErec2ymmhcHfhgzPg6H-11" value="" style="line;strokeWidth=1;fillColor=none;align=left;verticalAlign=middle;spacingTop=-1;spacingLeft=3;spacingRight=3;rotatable=0;labelPosition=right;points=[];portConstraint=eastwest;strokeColor=inherit;" parent="wErec2ymmhcHfhgzPg6H-8" vertex="1">
          <mxGeometry y="78" width="227" height="8" as="geometry" />
        </mxCell>
        <mxCell id="wErec2ymmhcHfhgzPg6H-12" value="+ startMoving(): void" style="text;strokeColor=none;fillColor=none;align=left;verticalAlign=top;spacingLeft=4;spacingRight=4;overflow=hidden;rotatable=0;points=[[0,0.5],[1,0.5]];portConstraint=eastwest;" parent="wErec2ymmhcHfhgzPg6H-8" vertex="1">
          <mxGeometry y="86" width="227" height="26" as="geometry" />
        </mxCell>
        <mxCell id="wErec2ymmhcHfhgzPg6H-13" value="+ checkPath(): void" style="text;strokeColor=none;fillColor=none;align=left;verticalAlign=top;spacingLeft=4;spacingRight=4;overflow=hidden;rotatable=0;points=[[0,0.5],[1,0.5]];portConstraint=eastwest;" parent="wErec2ymmhcHfhgzPg6H-8" vertex="1">
          <mxGeometry y="112" width="227" height="26" as="geometry" />
        </mxCell>
        <mxCell id="wErec2ymmhcHfhgzPg6H-16" value="" style="endArrow=classic;html=1;rounded=0;exitX=1;exitY=0.5;exitDx=0;exitDy=0;entryX=0.5;entryY=0;entryDx=0;entryDy=0;" parent="1" source="wErec2ymmhcHfhgzPg6H-6" target="wErec2ymmhcHfhgzPg6H-17" edge="1">
          <mxGeometry width="50" height="50" relative="1" as="geometry">
            <mxPoint x="390" y="287" as="sourcePoint" />
            <mxPoint x="630" y="297" as="targetPoint" />
            <Array as="points">
              <mxPoint x="624" y="222" />
            </Array>
          </mxGeometry>
        </mxCell>
        <mxCell id="wErec2ymmhcHfhgzPg6H-17" value="Enemy" style="swimlane;fontStyle=1;align=center;verticalAlign=top;childLayout=stackLayout;horizontal=1;startSize=26;horizontalStack=0;resizeParent=1;resizeParentMax=0;resizeLast=0;collapsible=1;marginBottom=0;" parent="1" vertex="1">
          <mxGeometry x="510" y="297" width="227" height="138" as="geometry" />
        </mxCell>
        <mxCell id="wErec2ymmhcHfhgzPg6H-18" value="# hitXp: int" style="text;strokeColor=none;fillColor=none;align=left;verticalAlign=top;spacingLeft=4;spacingRight=4;overflow=hidden;rotatable=0;points=[[0,0.5],[1,0.5]];portConstraint=eastwest;" parent="wErec2ymmhcHfhgzPg6H-17" vertex="1">
          <mxGeometry y="26" width="227" height="26" as="geometry" />
        </mxCell>
        <mxCell id="wErec2ymmhcHfhgzPg6H-19" value="# target: Ally" style="text;strokeColor=none;fillColor=none;align=left;verticalAlign=top;spacingLeft=4;spacingRight=4;overflow=hidden;rotatable=0;points=[[0,0.5],[1,0.5]];portConstraint=eastwest;" parent="wErec2ymmhcHfhgzPg6H-17" vertex="1">
          <mxGeometry y="52" width="227" height="26" as="geometry" />
        </mxCell>
        <mxCell id="wErec2ymmhcHfhgzPg6H-20" value="" style="line;strokeWidth=1;fillColor=none;align=left;verticalAlign=middle;spacingTop=-1;spacingLeft=3;spacingRight=3;rotatable=0;labelPosition=right;points=[];portConstraint=eastwest;strokeColor=inherit;" parent="wErec2ymmhcHfhgzPg6H-17" vertex="1">
          <mxGeometry y="78" width="227" height="8" as="geometry" />
        </mxCell>
        <mxCell id="wErec2ymmhcHfhgzPg6H-21" value="+ getTargetAlly(): void" style="text;strokeColor=none;fillColor=none;align=left;verticalAlign=top;spacingLeft=4;spacingRight=4;overflow=hidden;rotatable=0;points=[[0,0.5],[1,0.5]];portConstraint=eastwest;" parent="wErec2ymmhcHfhgzPg6H-17" vertex="1">
          <mxGeometry y="86" width="227" height="26" as="geometry" />
        </mxCell>
        <mxCell id="wErec2ymmhcHfhgzPg6H-22" value="+ flash(): void" style="text;strokeColor=none;fillColor=none;align=left;verticalAlign=top;spacingLeft=4;spacingRight=4;overflow=hidden;rotatable=0;points=[[0,0.5],[1,0.5]];portConstraint=eastwest;" parent="wErec2ymmhcHfhgzPg6H-17" vertex="1">
          <mxGeometry y="112" width="227" height="26" as="geometry" />
        </mxCell>
        <mxCell id="wErec2ymmhcHfhgzPg6H-23" value="BattleWorld" style="swimlane;fontStyle=1;align=center;verticalAlign=top;childLayout=stackLayout;horizontal=1;startSize=26;horizontalStack=0;resizeParent=1;resizeParentMax=0;resizeLast=0;collapsible=1;marginBottom=0;" parent="1" vertex="1">
          <mxGeometry x="120" y="508" width="227" height="138" as="geometry" />
        </mxCell>
        <mxCell id="wErec2ymmhcHfhgzPg6H-24" value="# state: String" style="text;strokeColor=none;fillColor=none;align=left;verticalAlign=top;spacingLeft=4;spacingRight=4;overflow=hidden;rotatable=0;points=[[0,0.5],[1,0.5]];portConstraint=eastwest;" parent="wErec2ymmhcHfhgzPg6H-23" vertex="1">
          <mxGeometry y="26" width="227" height="26" as="geometry" />
        </mxCell>
        <mxCell id="wErec2ymmhcHfhgzPg6H-25" value="# phase: String" style="text;strokeColor=none;fillColor=none;align=left;verticalAlign=top;spacingLeft=4;spacingRight=4;overflow=hidden;rotatable=0;points=[[0,0.5],[1,0.5]];portConstraint=eastwest;" parent="wErec2ymmhcHfhgzPg6H-23" vertex="1">
          <mxGeometry y="52" width="227" height="26" as="geometry" />
        </mxCell>
        <mxCell id="wErec2ymmhcHfhgzPg6H-26" value="" style="line;strokeWidth=1;fillColor=none;align=left;verticalAlign=middle;spacingTop=-1;spacingLeft=3;spacingRight=3;rotatable=0;labelPosition=right;points=[];portConstraint=eastwest;strokeColor=inherit;" parent="wErec2ymmhcHfhgzPg6H-23" vertex="1">
          <mxGeometry y="78" width="227" height="8" as="geometry" />
        </mxCell>
        <mxCell id="wErec2ymmhcHfhgzPg6H-27" value="+ initializeGrid(): void" style="text;strokeColor=none;fillColor=none;align=left;verticalAlign=top;spacingLeft=4;spacingRight=4;overflow=hidden;rotatable=0;points=[[0,0.5],[1,0.5]];portConstraint=eastwest;" parent="wErec2ymmhcHfhgzPg6H-23" vertex="1">
          <mxGeometry y="86" width="227" height="26" as="geometry" />
        </mxCell>
        <mxCell id="wErec2ymmhcHfhgzPg6H-28" value="+ saveHighestChapter(): void" style="text;strokeColor=none;fillColor=none;align=left;verticalAlign=top;spacingLeft=4;spacingRight=4;overflow=hidden;rotatable=0;points=[[0,0.5],[1,0.5]];portConstraint=eastwest;" parent="wErec2ymmhcHfhgzPg6H-23" vertex="1">
          <mxGeometry y="112" width="227" height="26" as="geometry" />
        </mxCell>
        <mxCell id="wErec2ymmhcHfhgzPg6H-30" value="Chapter1" style="swimlane;fontStyle=1;align=center;verticalAlign=top;childLayout=stackLayout;horizontal=1;startSize=26;horizontalStack=0;resizeParent=1;resizeParentMax=0;resizeLast=0;collapsible=1;marginBottom=0;" parent="1" vertex="1">
          <mxGeometry x="120" y="717" width="227" height="138" as="geometry" />
        </mxCell>
        <mxCell id="wErec2ymmhcHfhgzPg6H-31" value="# backLocation: Point" style="text;strokeColor=none;fillColor=none;align=left;verticalAlign=top;spacingLeft=4;spacingRight=4;overflow=hidden;rotatable=0;points=[[0,0.5],[1,0.5]];portConstraint=eastwest;" parent="wErec2ymmhcHfhgzPg6H-30" vertex="1">
          <mxGeometry y="26" width="227" height="26" as="geometry" />
        </mxCell>
        <mxCell id="wErec2ymmhcHfhgzPg6H-32" value="# xp: int" style="text;strokeColor=none;fillColor=none;align=left;verticalAlign=top;spacingLeft=4;spacingRight=4;overflow=hidden;rotatable=0;points=[[0,0.5],[1,0.5]];portConstraint=eastwest;" parent="wErec2ymmhcHfhgzPg6H-30" vertex="1">
          <mxGeometry y="52" width="227" height="26" as="geometry" />
        </mxCell>
        <mxCell id="wErec2ymmhcHfhgzPg6H-33" value="" style="line;strokeWidth=1;fillColor=none;align=left;verticalAlign=middle;spacingTop=-1;spacingLeft=3;spacingRight=3;rotatable=0;labelPosition=right;points=[];portConstraint=eastwest;strokeColor=inherit;" parent="wErec2ymmhcHfhgzPg6H-30" vertex="1">
          <mxGeometry y="78" width="227" height="8" as="geometry" />
        </mxCell>
        <mxCell id="wErec2ymmhcHfhgzPg6H-34" value="+ startMoving(): void" style="text;strokeColor=none;fillColor=none;align=left;verticalAlign=top;spacingLeft=4;spacingRight=4;overflow=hidden;rotatable=0;points=[[0,0.5],[1,0.5]];portConstraint=eastwest;" parent="wErec2ymmhcHfhgzPg6H-30" vertex="1">
          <mxGeometry y="86" width="227" height="26" as="geometry" />
        </mxCell>
        <mxCell id="wErec2ymmhcHfhgzPg6H-35" value="+ checkPath(): void" style="text;strokeColor=none;fillColor=none;align=left;verticalAlign=top;spacingLeft=4;spacingRight=4;overflow=hidden;rotatable=0;points=[[0,0.5],[1,0.5]];portConstraint=eastwest;" parent="wErec2ymmhcHfhgzPg6H-30" vertex="1">
          <mxGeometry y="112" width="227" height="26" as="geometry" />
        </mxCell>
        <mxCell id="wErec2ymmhcHfhgzPg6H-37" value="AttackAnimationWorld" style="swimlane;fontStyle=1;align=center;verticalAlign=top;childLayout=stackLayout;horizontal=1;startSize=26;horizontalStack=0;resizeParent=1;resizeParentMax=0;resizeLast=0;collapsible=1;marginBottom=0;" parent="1" vertex="1">
          <mxGeometry x="510" y="597" width="227" height="138" as="geometry" />
        </mxCell>
        <mxCell id="wErec2ymmhcHfhgzPg6H-38" value="# returnWorld: BattleWorld" style="text;strokeColor=none;fillColor=none;align=left;verticalAlign=top;spacingLeft=4;spacingRight=4;overflow=hidden;rotatable=0;points=[[0,0.5],[1,0.5]];portConstraint=eastwest;" parent="wErec2ymmhcHfhgzPg6H-37" vertex="1">
          <mxGeometry y="26" width="227" height="26" as="geometry" />
        </mxCell>
        <mxCell id="wErec2ymmhcHfhgzPg6H-39" value="# attackerActor: AttackAnimationActor" style="text;strokeColor=none;fillColor=none;align=left;verticalAlign=top;spacingLeft=4;spacingRight=4;overflow=hidden;rotatable=0;points=[[0,0.5],[1,0.5]];portConstraint=eastwest;" parent="wErec2ymmhcHfhgzPg6H-37" vertex="1">
          <mxGeometry y="52" width="227" height="26" as="geometry" />
        </mxCell>
        <mxCell id="wErec2ymmhcHfhgzPg6H-40" value="" style="line;strokeWidth=1;fillColor=none;align=left;verticalAlign=middle;spacingTop=-1;spacingLeft=3;spacingRight=3;rotatable=0;labelPosition=right;points=[];portConstraint=eastwest;strokeColor=inherit;" parent="wErec2ymmhcHfhgzPg6H-37" vertex="1">
          <mxGeometry y="78" width="227" height="8" as="geometry" />
        </mxCell>
        <mxCell id="wErec2ymmhcHfhgzPg6H-41" value="+ calculateDamageDealtBy(): int" style="text;strokeColor=none;fillColor=none;align=left;verticalAlign=top;spacingLeft=4;spacingRight=4;overflow=hidden;rotatable=0;points=[[0,0.5],[1,0.5]];portConstraint=eastwest;" parent="wErec2ymmhcHfhgzPg6H-37" vertex="1">
          <mxGeometry y="86" width="227" height="26" as="geometry" />
        </mxCell>
        <mxCell id="wErec2ymmhcHfhgzPg6H-42" value="+ setupHpBgs(): void" style="text;strokeColor=none;fillColor=none;align=left;verticalAlign=top;spacingLeft=4;spacingRight=4;overflow=hidden;rotatable=0;points=[[0,0.5],[1,0.5]];portConstraint=eastwest;" parent="wErec2ymmhcHfhgzPg6H-37" vertex="1">
          <mxGeometry y="112" width="227" height="26" as="geometry" />
        </mxCell>
        <mxCell id="wErec2ymmhcHfhgzPg6H-43" value="" style="endArrow=classic;html=1;rounded=0;exitX=0.507;exitY=1.077;exitDx=0;exitDy=0;exitPerimeter=0;entryX=0.5;entryY=0;entryDx=0;entryDy=0;" parent="1" source="wErec2ymmhcHfhgzPg6H-28" target="wErec2ymmhcHfhgzPg6H-30" edge="1">
          <mxGeometry width="50" height="50" relative="1" as="geometry">
            <mxPoint x="370" y="547" as="sourcePoint" />
            <mxPoint x="420" y="497" as="targetPoint" />
          </mxGeometry>
        </mxCell>
      </root>
    </mxGraphModel>
  </diagram>
</mxfile>
